<svg width="180" height="19" viewBox="0 0 180 19" fill="none" xmlns="http://www.w3.org/2000/svg">
<path fill-rule="evenodd" clip-rule="evenodd" d="M29.8458 8.22503V12.4453C28.7328 13.6787 26.929 14.3531 24.7798 14.3531C21.249 14.3531 18.8501 11.9635 18.8501 7.83957C18.8501 3.83122 21.2297 1.4032 24.7798 1.4032C26.8714 1.4032 28.5218 2.17395 29.5579 3.46517C29.4236 3.96606 28.9438 4.2744 28.4834 4.39018C27.7542 3.33015 26.5261 2.71349 24.7798 2.71349C22.0549 2.71349 20.3854 4.62138 20.3854 7.83957C20.3854 11.1541 22.0741 13.0234 24.7798 13.0234C26.123 13.0234 27.3128 12.7152 28.3106 12.0599V8.49489C28.7136 8.10925 29.3277 8.05154 29.8458 8.22503Z" fill="#2C2A29"/>
<path fill-rule="evenodd" clip-rule="evenodd" d="M36.5444 5.79761C34.9709 5.79761 34.184 5.91303 33.5508 6.26002V14.1609H32.0732V5.33501C33.1477 4.73758 34.5103 4.44849 35.6809 4.44849C36.2566 4.44849 36.5828 4.54485 36.8132 4.62198C36.8132 5.06516 36.7554 5.50833 36.5444 5.79761Z" fill="#2C2A29"/>
<path fill-rule="evenodd" clip-rule="evenodd" d="M46.2171 4.50647V13.3326C45.4879 13.8529 43.3771 14.2189 42.1874 14.2189C39.9421 14.2189 38.5029 13.3903 38.5029 11.0779V4.79557C38.9443 4.58342 39.4049 4.50647 39.9806 4.50647V10.8657C39.9806 12.2727 40.8057 12.9084 42.5327 12.9084C43.358 12.9084 44.1255 12.7736 44.7396 12.6003V4.77615C45.1426 4.56418 45.7183 4.50647 46.2171 4.50647Z" fill="#2C2A29"/>
<path fill-rule="evenodd" clip-rule="evenodd" d="M55.6973 9.2636C55.6973 7.25952 54.5842 5.69861 51.9361 5.69861C51.3987 5.69861 50.8422 5.77556 50.2665 5.9104V12.6745C50.8422 12.8867 51.5522 13.06 52.3199 13.06C54.4116 13.06 55.6973 11.9422 55.6973 9.2636ZM57.1937 9.49598C57.1937 12.2516 55.8505 14.352 52.9718 14.352C52.07 14.352 51.0338 14.0629 50.2661 13.6005V17.4933C49.9592 17.7824 49.23 17.9943 48.7886 17.9943V4.96733C49.4026 4.69747 50.65 4.42761 51.8398 4.42761C55.1595 4.42761 57.1937 6.16202 57.1937 9.49598Z" fill="#2C2A29"/>
<path fill-rule="evenodd" clip-rule="evenodd" d="M66.3676 9.34219C66.3676 7.04901 65.2164 5.71948 63.2397 5.71948C61.3016 5.71948 60.1312 7.04901 60.1312 9.34219C60.1312 11.7704 61.2824 13.023 63.2397 13.023C65.2164 13.023 66.3676 11.7704 66.3676 9.34219ZM58.6162 9.34291C58.6162 6.33688 60.4776 4.3905 63.2409 4.3905C66.0618 4.3905 67.8657 6.37535 67.8657 9.34291C67.8657 12.4457 66.0426 14.3534 63.2409 14.3534C60.4201 14.3534 58.6162 12.3878 58.6162 9.34291Z" fill="#2C2A29"/>
<path fill-rule="evenodd" clip-rule="evenodd" d="M11.3808 10.8605C9.74076 11.2572 8.13568 11.752 6.54642 12.3185C6.3194 12.4048 6.07285 12.2928 6.01281 12.0741C5.88474 11.6085 5.77123 11.2501 5.64494 10.786C5.59182 10.5912 5.70551 10.3796 5.90712 10.3058C7.49674 9.76183 9.10147 9.33451 10.7433 8.97968C10.9243 8.94263 11.1147 9.07605 11.1799 9.28054C11.3126 9.69682 11.4281 10.0313 11.5572 10.4492C11.6157 10.6387 11.5382 10.8224 11.3808 10.8605ZM3.15173 9.97265C3.05475 9.47176 2.95669 9.09556 2.86148 8.59574C2.82436 8.40016 2.93058 8.17839 3.10768 8.09503C5.53555 7.02539 8.09593 6.37808 10.7254 6.04446C10.8984 6.02183 11.0734 6.14991 11.138 6.34139C11.2766 6.75357 11.3951 7.08613 11.5297 7.50027C11.5947 7.69995 11.5082 7.89393 11.3382 7.92154C8.66471 8.3485 6.0585 9.06456 3.59244 10.1891C3.3942 10.2854 3.1933 10.1869 3.15173 9.97265ZM4.33412 4.28011C5.96033 3.81093 7.583 3.50633 9.26251 3.30024C9.44582 3.28047 9.62505 3.3991 9.69131 3.58008C9.84709 4.00633 9.97428 4.34601 10.1269 4.77458C10.1993 4.978 10.0913 5.18089 9.89452 5.20707C8.17593 5.46054 6.51028 5.80896 4.84871 6.31804C4.64604 6.38501 4.44656 6.28295 4.3954 6.08523C4.27443 5.61747 4.16448 5.25801 4.04564 4.79186C3.99235 4.58239 4.12238 4.34619 4.33412 4.28011ZM7.54401 0.364136C3.44516 0.364136 0.122559 3.69596 0.122559 7.8062C0.122559 11.9164 3.44516 15.2483 7.54401 15.2483C11.6427 15.2483 14.9655 11.9164 14.9655 7.8062C14.9655 3.69596 11.6427 0.364136 7.54401 0.364136Z" fill="#2C2A29"/>
<path fill-rule="evenodd" clip-rule="evenodd" d="M78.4001 10.2934C78.4001 9.27558 77.7489 8.85306 76.4659 8.85306H74.9336V11.7339H76.4465C77.6915 11.7339 78.4001 11.2344 78.4001 10.2934ZM76.1595 3.80139C75.7576 3.80139 75.3362 3.83987 74.9339 3.89758V6.45171H76.2363C77.3854 6.45171 77.9216 5.97167 77.9216 5.14588C77.9216 4.35839 77.3662 3.80139 76.1595 3.80139ZM81.541 10.4279C81.541 12.6747 79.281 14.1728 76.7147 14.1728H72.0034V1.76654C73.5739 1.53605 74.7613 1.38232 76.1593 1.38232C78.7447 1.38232 80.8132 2.59233 80.8132 4.70489C80.8132 5.91471 80.1812 6.72126 79.0513 7.16301C80.7941 7.6623 81.541 8.71858 81.541 10.4279Z" fill="#2C2A29"/>
<path fill-rule="evenodd" clip-rule="evenodd" d="M88.2897 11.7154V10.0636H87.7343C86.4321 10.0636 85.2446 10.3518 85.2446 11.2545C85.2446 11.9458 85.7043 12.1954 86.6427 12.1954C87.3897 12.1954 88.0025 11.9649 88.2897 11.7154ZM91.1043 8.12312V13.174C90.07 13.9615 88.4038 14.3839 86.1439 14.3839C84.133 14.3839 82.4668 13.5581 82.4668 11.7337C82.4668 8.98739 85.129 8.31514 88.2888 8.21913C88.2315 7.02837 87.7526 6.7211 86.6992 6.7211C86.1439 6.7211 84.6691 6.97083 84.4778 6.97083C84.0181 6.97083 83.6543 6.6828 83.3478 5.83778L83.118 5.14648C84.3053 4.70473 85.4736 4.39746 86.7376 4.39746C89.4953 4.39746 91.1043 5.4345 91.1043 8.12312Z" fill="#2C2A29"/>
<path fill-rule="evenodd" clip-rule="evenodd" d="M101.651 7.33649V14.1733H98.7779V8.3543C98.7779 7.33649 98.1077 6.81779 96.9393 6.81779C96.4991 6.81779 96.0778 6.87551 95.7138 6.97152V14.1733H92.8218L92.841 5.62721C94.0476 4.82066 96.001 4.37891 97.5905 4.37891C99.7931 4.37891 101.651 5.47366 101.651 7.33649Z" fill="#2C2A29"/>
<path fill-rule="evenodd" clip-rule="evenodd" d="M102.895 9.48804C102.895 6.12717 105.231 4.36035 108.257 4.36035C109.1 4.36035 109.866 4.4756 110.785 4.68685C110.67 5.64713 110.268 6.49197 109.827 6.9722C109.502 6.87619 108.966 6.79942 108.659 6.79942C106.725 6.79942 105.94 7.79799 105.94 9.31526C105.94 10.8516 106.668 11.7926 108.487 11.7926C108.985 11.7926 109.559 11.6966 110.268 11.4469L110.785 13.7515C109.732 14.174 108.64 14.3662 107.778 14.3662C104.829 14.3662 102.895 12.5993 102.895 9.48804Z" fill="#2C2A29"/>
<path fill-rule="evenodd" clip-rule="evenodd" d="M118.446 9.35256C118.446 7.77793 117.68 6.85596 116.339 6.85596C115.037 6.85596 114.232 7.77793 114.232 9.35256C114.232 11.0041 115.018 11.8686 116.339 11.8686C117.68 11.8686 118.446 11.0041 118.446 9.35256ZM111.341 9.35355C111.341 6.2809 113.41 4.36035 116.34 4.36035C119.385 4.36035 121.338 6.35767 121.338 9.35355C121.338 12.4456 119.366 14.3662 116.34 14.3662C113.295 14.3662 111.341 12.3881 111.341 9.35355Z" fill="#2C2A29"/>
<path fill-rule="evenodd" clip-rule="evenodd" d="M122.966 1.84489C123.636 1.34561 125.092 0.923096 125.858 0.923096V14.1743H122.966V1.84489Z" fill="#2C2A29"/>
<path fill-rule="evenodd" clip-rule="evenodd" d="M134.592 9.35256C134.592 7.77793 133.826 6.85596 132.486 6.85596C131.183 6.85596 130.379 7.77793 130.379 9.35256C130.379 11.0041 131.164 11.8686 132.486 11.8686C133.826 11.8686 134.592 11.0041 134.592 9.35256ZM127.488 9.35355C127.488 6.2809 129.556 4.36035 132.486 4.36035C135.531 4.36035 137.485 6.35767 137.485 9.35355C137.485 12.4456 135.512 14.3662 132.486 14.3662C129.441 14.3662 127.488 12.3881 127.488 9.35355Z" fill="#2C2A29"/>
<path fill-rule="evenodd" clip-rule="evenodd" d="M153.591 7.33649V14.1733H150.737V8.3543C150.737 7.33649 150.086 6.81779 148.937 6.81779C148.401 6.81779 147.883 6.93304 147.462 7.106C147.615 7.52851 147.692 7.9895 147.692 8.48861V14.1733H144.838V8.3543C144.838 7.33649 144.187 6.81779 143.038 6.81779C142.598 6.81779 142.176 6.87551 141.812 6.97152V14.1733H138.92L138.939 5.62721C140.089 4.82066 141.889 4.37891 143.402 4.37891C144.608 4.37891 145.643 4.78218 146.39 5.43519C147.366 4.80142 148.726 4.37891 149.875 4.37891C151.963 4.37891 153.591 5.49272 153.591 7.33649Z" fill="#2C2A29"/>
<path fill-rule="evenodd" clip-rule="evenodd" d="M162.343 9.21962C162.343 7.45279 161.424 6.81885 159.949 6.81885C159.355 6.81885 158.876 6.93409 158.455 7.12629V11.9467C158.972 12.0235 159.47 12.0618 159.93 12.0618C161.615 12.0618 162.343 10.7559 162.343 9.21962ZM165.197 8.85465C165.197 12.3498 163.129 14.3665 159.758 14.3665C158.111 14.3665 156.522 14.0593 155.564 13.6174V1.84489C156.234 1.34561 157.709 0.923096 158.456 0.923096V5.47472C159.279 4.76401 160.275 4.37997 161.175 4.37997C164.029 4.37997 165.197 6.35805 165.197 8.85465Z" fill="#2C2A29"/>
<path fill-rule="evenodd" clip-rule="evenodd" d="M166.825 4.6477C167.227 4.47492 167.726 4.37891 168.281 4.37891C168.837 4.37891 169.315 4.47492 169.716 4.6477V14.1733H166.825V4.6477ZM166.786 1.61332C166.786 0.806765 167.456 0.134521 168.261 0.134521C169.085 0.134521 169.755 0.787528 169.755 1.61332C169.755 2.40081 169.085 3.09211 168.261 3.09211C167.456 3.09211 166.786 2.4391 166.786 1.61332Z" fill="#2C2A29"/>
<path fill-rule="evenodd" clip-rule="evenodd" d="M176.976 11.7154V10.0636H176.42C175.118 10.0636 173.931 10.3518 173.931 11.2545C173.931 11.9458 174.389 12.1954 175.329 12.1954C176.075 12.1954 176.688 11.9649 176.976 11.7154ZM179.792 8.12312V13.174C178.758 13.9615 177.092 14.3839 174.83 14.3839C172.82 14.3839 171.153 13.5581 171.153 11.7337C171.153 8.98739 173.816 8.31514 176.976 8.21913C176.917 7.02837 176.44 6.7211 175.386 6.7211C174.83 6.7211 173.356 6.97083 173.164 6.97083C172.706 6.97083 172.342 6.6828 172.034 5.83778L171.805 5.14648C172.992 4.70473 174.161 4.39746 175.425 4.39746C178.182 4.39746 179.792 5.4345 179.792 8.12312Z" fill="#2C2A29"/>
</svg>
